<svg version="1.1" xmlns="http://www.w3.org/2000/svg" viewBox="0 0 431 598" width="431" height="598">
  <!-- svg-source:excalidraw -->
  
  <defs>
    <style class="style-fonts">
      @font-face {
        font-family: "Virgil";
        src: url("https://excalidraw.com/Virgil.woff2");
      }
      @font-face {
        font-family: "Cascadia";
        src: url("https://excalidraw.com/Cascadia.woff2");
      }
    </style>
  </defs>
  <rect x="0" y="0" width="431" height="598" fill="#ffffff"></rect><g transform="translate(99 10) rotate(0 17.79296875 11.5)"><text x="0" y="0" font-family="Helvetica, Segoe UI Emoji" font-size="20px" fill="#1e1e1e" text-anchor="start" style="white-space: pre;" direction="ltr" dominant-baseline="text-before-edge">App</text></g><g stroke-linecap="round" transform="translate(99 47) rotate(0 21.5 20)"><path d="M20.26 0.66 C24.86 0.27, 31.81 2.05, 35.65 4.62 C39.48 7.19, 42.57 12.03, 43.26 16.05 C43.95 20.07, 42.06 24.86, 39.78 28.73 C37.51 32.59, 33.86 37.5, 29.61 39.22 C25.35 40.94, 18.55 40.61, 14.24 39.05 C9.93 37.49, 6.23 33.58, 3.73 29.86 C1.23 26.15, -1.2 20.8, -0.76 16.77 C-0.32 12.74, 2.52 8.54, 6.35 5.66 C10.17 2.78, 19.14 0.24, 22.18 -0.49 C25.22 -1.23, 24.39 0.81, 24.58 1.23 M17.45 0.44 C22.17 -0.56, 29.98 -0.15, 33.8 2.22 C37.62 4.59, 39 10.3, 40.35 14.68 C41.71 19.06, 43.4 24.83, 41.91 28.5 C40.41 32.18, 35.27 34.74, 31.41 36.72 C27.55 38.7, 23.42 41.07, 18.75 40.37 C14.07 39.67, 6.51 36.01, 3.37 32.53 C0.22 29.05, -0.24 23.75, -0.1 19.48 C0.04 15.2, 1.18 10.18, 4.2 6.9 C7.22 3.61, 15.46 0.9, 18.03 -0.23 C20.6 -1.37, 19.33 -0.25, 19.63 0.1" stroke="#1e1e1e" stroke-width="1" fill="none"></path></g><g stroke-linecap="round"><g transform="translate(85 84) rotate(0 -19.477967748763064 12.042877905815828)"><path d="M-0.48 -1.16 C-7.17 2.88, -33.43 20.96, -40 25.25 M1.47 0.85 C-5.31 5.02, -33.5 19.12, -40.42 23.25" stroke="#1e1e1e" stroke-width="1" fill="none"></path></g><g transform="translate(85 84) rotate(0 -19.477967748763064 12.042877905815828)"><path d="M-26.44 6.94 C-28.91 12.69, -35.06 15.45, -38.72 24.22 M-24.67 4.59 C-27.76 8.87, -31.27 13.52, -40.79 24.17" stroke="#1e1e1e" stroke-width="1" fill="none"></path></g><g transform="translate(85 84) rotate(0 -19.477967748763064 12.042877905815828)"><path d="M-18.61 21.37 C-23.65 22.58, -32.24 20.84, -38.72 24.22 M-16.84 19.02 C-21.49 20.38, -26.59 22.12, -40.79 24.17" stroke="#1e1e1e" stroke-width="1" fill="none"></path></g></g><mask></mask><g stroke-linecap="round"><g transform="translate(119 96) rotate(0 -0.8681544811744288 17.075039229365075)"><path d="M-1.09 -0.34 C-1.28 5.51, -1.35 28.68, -1.56 34.46 M0.54 -1.57 C0.26 4.5, -1.63 29.57, -2.28 35.72" stroke="#1e1e1e" stroke-width="1" fill="none"></path></g><g transform="translate(119 96) rotate(0 -0.8681544811744288 17.075039229365075)"><path d="M-7.32 19.43 C-6.48 22.8, -5.41 28.89, -1.45 35.19 M-7.02 19.64 C-5.67 23.15, -4.08 26.3, -3.03 35.31" stroke="#1e1e1e" stroke-width="1" fill="none"></path></g><g transform="translate(119 96) rotate(0 -0.8681544811744288 17.075039229365075)"><path d="M4.63 20.47 C2.28 23.46, 0.16 29.27, -1.45 35.19 M4.93 20.68 C3.53 23.91, 2.38 26.81, -3.03 35.31" stroke="#1e1e1e" stroke-width="1" fill="none"></path></g></g><mask></mask><g stroke-linecap="round"><g transform="translate(149 82) rotate(0 17.73864166545681 14.590768926590684)"><path d="M0.63 -1.16 C6.19 3.85, 28.21 25.17, 33.87 30.34 M-0.51 0.85 C5.36 5.45, 30.31 23.35, 35.98 28.4" stroke="#1e1e1e" stroke-width="1" fill="none"></path></g><g transform="translate(149 82) rotate(0 17.73864166545681 14.590768926590684)"><path d="M12.16 19.29 C22.17 22.78, 28.92 27.04, 37.94 29.47 M14.64 20.72 C23.62 23.34, 30.16 27.6, 35.24 29.23" stroke="#1e1e1e" stroke-width="1" fill="none"></path></g><g transform="translate(149 82) rotate(0 17.73864166545681 14.590768926590684)"><path d="M21.92 6.91 C28.62 14.69, 32.03 23.18, 37.94 29.47 M24.4 8.34 C29.69 15.8, 32.46 24.86, 35.24 29.23" stroke="#1e1e1e" stroke-width="1" fill="none"></path></g></g><mask></mask><g transform="translate(10 125.30000000000001) rotate(0 25.7890625 9.199999999999989)"><text x="0" y="0" font-family="Helvetica, Segoe UI Emoji" font-size="16px" fill="#1e1e1e" text-anchor="start" style="white-space: pre;" direction="ltr" dominant-baseline="text-before-edge">Navbar</text></g><g transform="translate(110 148) rotate(0 8.8984375 9.199999999999989)"><text x="0" y="0" font-family="Helvetica, Segoe UI Emoji" font-size="16px" fill="#1e1e1e" text-anchor="start" style="white-space: pre;" direction="ltr" dominant-baseline="text-before-edge">h1</text></g><g transform="translate(180 137) rotate(0 36.01953125 9.199999999999989)"><text x="0" y="0" font-family="Helvetica, Segoe UI Emoji" font-size="16px" fill="#1e1e1e" text-anchor="start" style="white-space: pre;" direction="ltr" dominant-baseline="text-before-edge">Todos List</text></g><g stroke-linecap="round"><g transform="translate(209 167) rotate(0 0.3913025590777863 19.34358472153545)"><path d="M-0.62 -1.04 C-0.59 5.59, -1.02 33.03, -0.76 39.73 M1.25 1.03 C1.75 7.32, 1.65 31.4, 1.55 37.99" stroke="#1e1e1e" stroke-width="1" fill="none"></path></g><g transform="translate(209 167) rotate(0 0.3913025590777863 19.34358472153545)"><path d="M-6.67 18.37 C-2.36 25.21, -1.86 28.73, 0.38 37.96 M-4.37 18.98 C-3.13 23.59, -2.82 27.5, 0.63 38.77" stroke="#1e1e1e" stroke-width="1" fill="none"></path></g><g transform="translate(209 167) rotate(0 0.3913025590777863 19.34358472153545)"><path d="M6.67 18.47 C8.02 25.23, 5.57 28.72, 0.38 37.96 M8.96 19.08 C7.14 23.54, 4.37 27.43, 0.63 38.77" stroke="#1e1e1e" stroke-width="1" fill="none"></path></g></g><mask></mask><g transform="translate(192 231) rotate(0 27.125 9.199999999999989)"><text x="0" y="0" font-family="Helvetica, Segoe UI Emoji" font-size="16px" fill="#1e1e1e" text-anchor="start" style="white-space: pre;" direction="ltr" dominant-baseline="text-before-edge">Card *n</text></g><g stroke-linecap="round" transform="translate(198 263) rotate(0 14.5 15)"><path d="M17.18 -0.49 C19.91 -0.14, 23.29 3.67, 25.26 6.23 C27.23 8.8, 29.02 11.7, 29.02 14.93 C29.01 18.16, 27.17 23.15, 25.23 25.63 C23.28 28.1, 20.46 29.47, 17.34 29.79 C14.22 30.11, 9.15 29.18, 6.52 27.55 C3.88 25.92, 2.54 22.95, 1.52 20.03 C0.51 17.1, -0.49 13.11, 0.42 10.02 C1.34 6.93, 4.19 3.06, 7.02 1.49 C9.85 -0.07, 15.48 0.57, 17.42 0.63 C19.36 0.69, 18.53 1.58, 18.65 1.87 M11.85 0.16 C14.93 -0.73, 21.06 -0.2, 23.69 1.63 C26.32 3.45, 26.95 7.69, 27.64 11.12 C28.32 14.56, 29 19.27, 27.8 22.24 C26.61 25.21, 23.31 27.57, 20.48 28.94 C17.66 30.31, 13.55 31.33, 10.84 30.47 C8.13 29.61, 6.07 26.27, 4.22 23.77 C2.38 21.26, 0.08 18.52, -0.23 15.45 C-0.53 12.38, 0.38 8.08, 2.41 5.33 C4.43 2.57, 10.16 -0.22, 11.93 -1.05 C13.7 -1.89, 13.07 -0.27, 13.03 0.3" stroke="#1e1e1e" stroke-width="1" fill="none"></path></g><g stroke-linecap="round"><g transform="translate(193 289) rotate(0 -21.615720149879337 19.759131101449015)"><path d="M1.01 -0.25 C-6.13 6.46, -35.67 34.17, -43.19 40.94 M0.09 -1.42 C-7.2 4.91, -37.25 32.7, -44.25 39.31" stroke="#1e1e1e" stroke-width="1" fill="none"></path></g><g transform="translate(193 289) rotate(0 -21.615720149879337 19.759131101449015)"><path d="M-31.33 12.83 C-32.79 18.39, -37.28 26.38, -45.81 39.74 M-30.05 13.67 C-34.08 21.39, -39.03 28.72, -44.25 39.34" stroke="#1e1e1e" stroke-width="1" fill="none"></path></g><g transform="translate(193 289) rotate(0 -21.615720149879337 19.759131101449015)"><path d="M-17.63 27.52 C-22.87 29.23, -31.05 33.26, -45.81 39.74 M-16.35 28.36 C-24.27 31.86, -33.23 34.89, -44.25 39.34" stroke="#1e1e1e" stroke-width="1" fill="none"></path></g></g><mask></mask><g stroke-linecap="round"><g transform="translate(232 293) rotate(0 20.63140640273224 15.935562438517792)"><path d="M1.1 -0.85 C7.9 4.65, 34.76 27.38, 41.05 32.73 M0.21 1.31 C6.94 6.5, 33.84 25.84, 40.65 30.98" stroke="#1e1e1e" stroke-width="1" fill="none"></path></g><g transform="translate(232 293) rotate(0 20.63140640273224 15.935562438517792)"><path d="M14.65 25.54 C25.05 23.87, 30.36 27.26, 39.94 29.48 M16.29 23.57 C22.56 25.44, 29.12 28.15, 39.69 31.53" stroke="#1e1e1e" stroke-width="1" fill="none"></path></g><g transform="translate(232 293) rotate(0 20.63140640273224 15.935562438517792)"><path d="M25.03 11.42 C32.1 14.32, 34.14 22.18, 39.94 29.48 M26.66 9.46 C30.23 15.06, 34.02 21.53, 39.69 31.53" stroke="#1e1e1e" stroke-width="1" fill="none"></path></g></g><mask></mask><g transform="translate(120 344) rotate(0 13.78515625 9.199999999999989)"><text x="0" y="0" font-family="Helvetica, Segoe UI Emoji" font-size="16px" fill="#1e1e1e" text-anchor="start" style="white-space: pre;" direction="ltr" dominant-baseline="text-before-edge">true</text></g><g transform="translate(274 342) rotate(0 16.8984375 9.199999999999989)"><text x="0" y="0" font-family="Helvetica, Segoe UI Emoji" font-size="16px" fill="#1e1e1e" text-anchor="start" style="white-space: pre;" direction="ltr" dominant-baseline="text-before-edge">false</text></g><g stroke-linecap="round"><g transform="translate(125 373) rotate(0 0.05345296535497823 16.532004233975897)"><path d="M-0.67 -0.37 C-0.7 5.52, -0.04 28.84, -0.08 34.67 M1.17 -1.61 C0.97 3.99, -1.12 27.2, -1.06 32.9" stroke="#1e1e1e" stroke-width="1" fill="none"></path></g><g transform="translate(125 373) rotate(0 0.05345296535497823 16.532004233975897)"><path d="M-6.64 16.56 C-3.71 20.4, -2.24 25.51, -2.13 32.22 M-5.41 17.17 C-3.93 22.23, -2.27 27.53, -1.41 32.27" stroke="#1e1e1e" stroke-width="1" fill="none"></path></g><g transform="translate(125 373) rotate(0 0.05345296535497823 16.532004233975897)"><path d="M4.98 17.11 C4.35 20.71, 2.25 25.66, -2.13 32.22 M6.21 17.72 C3.98 22.71, 1.95 27.85, -1.41 32.27" stroke="#1e1e1e" stroke-width="1" fill="none"></path></g></g><mask></mask><g transform="translate(97 424) rotate(0 36.91015625 9.199999999999989)"><text x="0" y="0" font-family="Helvetica, Segoe UI Emoji" font-size="16px" fill="#1e1e1e" text-anchor="start" style="white-space: pre;" direction="ltr" dominant-baseline="text-before-edge">completed</text></g><g stroke-linecap="round"><g transform="translate(125 454) rotate(0 0.9594413186563315 16.045558471232653)"><path d="M1.05 -0.73 C1.34 4.61, 1.73 27.24, 1.78 32.82 M0.14 1.51 C0.25 6.43, 0.7 26.25, 0.71 31.13" stroke="#1e1e1e" stroke-width="1" fill="none"></path></g><g transform="translate(125 454) rotate(0 0.9594413186563315 16.045558471232653)"><path d="M-5.96 15.84 C-2.06 19.75, -0.46 24.59, 0.02 32.23 M-4.82 16.83 C-2.81 20.5, -2.03 26.01, 1.28 31.3" stroke="#1e1e1e" stroke-width="1" fill="none"></path></g><g transform="translate(125 454) rotate(0 0.9594413186563315 16.045558471232653)"><path d="M5.01 15.69 C5.58 19.73, 3.84 24.63, 0.02 32.23 M6.15 16.67 C4.64 20.31, 1.89 25.86, 1.28 31.3" stroke="#1e1e1e" stroke-width="1" fill="none"></path></g></g><mask></mask><g transform="translate(40 507) rotate(0 30.68359375 9.199999999999989)"><text x="0" y="0" font-family="Helvetica, Segoe UI Emoji" font-size="16px" fill="#1e1e1e" text-anchor="start" style="white-space: pre;" direction="ltr" dominant-baseline="text-before-edge">b.g color</text></g><g transform="translate(115 509) rotate(0 31.14453125 9.199999999999989)"><text x="0" y="0" font-family="Helvetica, Segoe UI Emoji" font-size="16px" fill="#1e1e1e" text-anchor="start" style="white-space: pre;" direction="ltr" dominant-baseline="text-before-edge">#d3e9e2</text></g><g transform="translate(37 555) rotate(0 19.34765625 9.199999999999989)"><text x="0" y="0" font-family="Helvetica, Segoe UI Emoji" font-size="16px" fill="#1e1e1e" text-anchor="start" style="white-space: pre;" direction="ltr" dominant-baseline="text-before-edge">icon=</text></g><g transform="translate(83 552) rotate(0 10.984375 9.199999999999989)"><text x="0" y="0" font-family="Helvetica, Segoe UI Emoji" font-size="16px" fill="#1e1e1e" text-anchor="start" style="white-space: pre;" direction="ltr" dominant-baseline="text-before-edge">🌈</text></g><g stroke-linecap="round" transform="translate(16 500) rotate(0 89.5 44)"><path d="M22 0 M22 0 C66.17 0.31, 108.96 -0.41, 157 0 M22 0 C69.45 -0.79, 119.41 -0.5, 157 0 M157 0 C170.48 1.21, 180.78 6.91, 179 22 M157 0 C170.95 -1.99, 177.34 8.86, 179 22 M179 22 C177.51 35.98, 176.94 45.47, 179 66 M179 22 C178.95 37.35, 179.95 52.59, 179 66 M179 66 C177.91 79.81, 169.69 87.7, 157 88 M179 66 C177.38 80.28, 169.6 86.88, 157 88 M157 88 C119.05 86.86, 78.34 86.01, 22 88 M157 88 C122.51 88.47, 88.06 89.47, 22 88 M22 88 C8.16 89.26, -0.8 81.62, 0 66 M22 88 C7.22 87.16, 2.03 80.12, 0 66 M0 66 C-1.71 52.59, 1.56 37.65, 0 22 M0 66 C0.38 49.96, 1.15 34.14, 0 22 M0 22 C0.33 6.07, 7.25 1.7, 22 0 M0 22 C1.88 7.11, 7.55 -1.11, 22 0" stroke="#1e1e1e" stroke-width="1" fill="none"></path></g><g stroke-linecap="round"><g transform="translate(290 375) rotate(0 0.6733336679689614 54.122129483679316)"><path d="M-0.58 -0.42 C-0.59 17.66, -0.29 90.27, -0.17 108.6 M1.32 -1.68 C1.67 16.56, 1.72 91.73, 1.93 109.93" stroke="#1e1e1e" stroke-width="1" fill="none"></path></g><g transform="translate(290 375) rotate(0 0.6733336679689614 54.122129483679316)"><path d="M-9.19 79.84 C-6.11 88.57, -1.51 97.89, 2.45 110.37 M-7.66 81.37 C-5.84 87.96, -3.87 93.5, 2.91 110.35" stroke="#1e1e1e" stroke-width="1" fill="none"></path></g><g transform="translate(290 375) rotate(0 0.6733336679689614 54.122129483679316)"><path d="M11.33 79.73 C8.46 88.39, 7.09 97.75, 2.45 110.37 M12.86 81.25 C10.37 87.99, 8.03 93.55, 2.91 110.35" stroke="#1e1e1e" stroke-width="1" fill="none"></path></g></g><mask></mask><g transform="translate(270 510) rotate(0 30.68359375 9.199999999999989)"><text x="0" y="0" font-family="Helvetica, Segoe UI Emoji" font-size="16px" fill="#1e1e1e" text-anchor="start" style="white-space: pre;" direction="ltr" dominant-baseline="text-before-edge">b.g color</text></g><g transform="translate(342 509) rotate(0 30.6953125 9.199999999999989)"><text x="0" y="0" font-family="Helvetica, Segoe UI Emoji" font-size="16px" fill="#1e1e1e" text-anchor="start" style="white-space: pre;" direction="ltr" dominant-baseline="text-before-edge">#ecb6a1</text></g><g stroke-linecap="round" transform="translate(242 499) rotate(0 89.5 41.5)"><path d="M20.75 0 M20.75 0 C73.17 -1.27, 128.38 0.24, 158.25 0 M20.75 0 C67.44 -1.78, 112.62 -1.15, 158.25 0 M158.25 0 C173.02 0.42, 178.55 5.47, 179 20.75 M158.25 0 C171.32 -0.93, 179.16 4.96, 179 20.75 M179 20.75 C178.03 30.42, 177.57 40.76, 179 62.25 M179 20.75 C177.69 35.83, 177.81 51.52, 179 62.25 M179 62.25 C177.3 76.6, 171.19 84.46, 158.25 83 M179 62.25 C178.27 75.47, 170.58 82.2, 158.25 83 M158.25 83 C109.25 81.15, 59.43 83.81, 20.75 83 M158.25 83 C107.17 83.64, 55.25 82.81, 20.75 83 M20.75 83 C7.05 81.97, -1.79 78.07, 0 62.25 M20.75 83 C7.46 81.14, 1.03 77.4, 0 62.25 M0 62.25 C1.79 46.02, 1.08 30.92, 0 20.75 M0 62.25 C0.44 54.02, -0.27 45.54, 0 20.75 M0 20.75 C-1.33 8.81, 7.03 -0.67, 20.75 0 M0 20.75 C2.01 8.5, 5.25 0.65, 20.75 0" stroke="#1e1e1e" stroke-width="1" fill="none"></path></g></svg>